<svg xmlns="http://www.w3.org/2000/svg" viewBox="0 0 48 48" fill="none">
  <rect width="48" height="48" rx="12" fill="#6C3DFF"/>
  <path d="M24 10C16.268 10 10 16.268 10 24C10 31.732 16.268 38 24 38C29.2 38 33.7 35.1 36.2 30.8L31.8 28.4C30.1 31.1 27.3 33 24 33C19.6 33 16 29.6 15.1 25.1H37.9C37.97 24.74 38 24.37 38 24C38 16.268 31.732 10 24 10ZM15.1 21.1C16 16.6 19.6 13 24 13C28.4 13 32 16.4 32.9 21.1H15.1Z" fill="white"/>
  <rect x="14" y="22" width="20" height="3.5" rx="1.75" fill="#6C3DFF"/>
</svg>
